{
  "accessors": [
    {
      "bufferView": 2,
      "componentType": 5126,
      "count": 364,
      "max": [
        12.488109588623047,
        8.3800239562988281,
        5.2867603302001953
      ],
      "min": [
        11.395297050476074,
        7.0605850219726562,
        2.3383133411407471
      ],
      "type": "VEC3"
    },
    {
      "bufferView": 2,
      "byteOffset": 4368,
      "componentType": 5126,
      "count": 364,
      "max": [
        0.99999755620956421,
        0.9999464750289917,
        0.75722229480743408
      ],
      "min": [
        -0.76605582237243652,
        -0.9999464750289917,
        -0.76605260372161865
      ],
      "type": "VEC3"
    },
    {
      "bufferView": 3,
      "componentType": 5126,
      "count": 364,
      "max": [
        0.20361942052841187,
        1,
        0.99997609853744507,
        1
      ],
      "min": [
        -0.0084822634235024452,
        -0.48704048991203308,
        -0.99999767541885376,
        -1
      ],
      "type": "VEC4"
    },
    {
      "bufferView": 1,
      "componentType": 5126,
      "count": 364,
      "max": [
        0.81505155563354492,
        0.99763309955596924
      ],
      "min": [
        0.0041560651734471321,
        0.0019920689519494772
      ],
      "type": "VEC2"
    },
    {
      "bufferView": 0,
      "componentType": 5125,
      "count": 1134,
      "max": [
        363
      ],
      "min": [
        0
      ],
      "type": "SCALAR"
    },
    {
      "bufferView": 2,
      "byteOffset": 8736,
      "componentType": 5126,
      "count": 3808,
      "max": [
        12.502164840698242,
        8.3935546875,
        5.3073034286499023
      ],
      "min": [
        11.380170822143555,
        7.0489492416381836,
        2.3238539695739746
      ],
      "type": "VEC3"
    },
    {
      "bufferView": 2,
      "byteOffset": 54432,
      "componentType": 5126,
      "count": 3808,
      "max": [
        0.99996846914291382,
        1,
        0.99995452165603638
      ],
      "min": [
        -0.9978642463684082,
        -1,
        -0.9999840259552002
      ],
      "type": "VEC3"
    },
    {
      "bufferView": 3,
      "byteOffset": 5824,
      "componentType": 5126,
      "count": 3808,
      "max": [
        0.99999964237213135,
        1,
        1,
        1
      ],
      "min": [
        -0.99426913261413574,
        -0.99969911575317383,
        -1,
        -1
      ],
      "type": "VEC4"
    },
    {
      "bufferView": 1,
      "byteOffset": 2912,
      "componentType": 5126,
      "count": 3808,
      "max": [
        0.94619697332382202,
        0.99775707721710205
      ],
      "min": [
        0.0018886360339820385,
        0.0019920566119253635
      ],
      "type": "VEC2"
    },
    {
      "bufferView": 0,
      "byteOffset": 4536,
      "componentType": 5125,
      "count": 13008,
      "max": [
        3807
      ],
      "min": [
        0
      ],
      "type": "SCALAR"
    }
  ],
  "asset": {
    "extras": {
      "author": "Boooooop (https://sketchfab.com/wri15203659)",
      "license": "CC-BY-4.0 (http://creativecommons.org/licenses/by/4.0/)",
      "source": "https://sketchfab.com/models/608884fe403b41d0970cbf0332646747",
      "title": "Leather Books"
    },
    "generator": "Sketchfab-3.19.6",
    "version": "2.0"
  },
  "bufferViews": [
    {
      "buffer": 0,
      "byteLength": 56568,
      "byteOffset": 0,
      "name": "floatBufferViews",
      "target": 34963
    },
    {
      "buffer": 0,
      "byteLength": 33376,
      "byteOffset": 56568,
      "byteStride": 8,
      "name": "floatBufferViews",
      "target": 34962
    },
    {
      "buffer": 0,
      "byteLength": 100128,
      "byteOffset": 89944,
      "byteStride": 12,
      "name": "floatBufferViews",
      "target": 34962
    },
    {
      "buffer": 0,
      "byteLength": 66752,
      "byteOffset": 190072,
      "byteStride": 16,
      "name": "floatBufferViews",
      "target": 34962
    }
  ],
  "buffers": [
    {
      "byteLength": 256824,
      "uri": "scene.bin"
    }
  ],
  "images": [
    {
      "uri": "textures/Book_Cover_baseColor.png"
    },
    {
      "uri": "textures/Book_Cover_normal.png"
    },
    {
      "uri": "textures/Book_Cover_metallicRoughness.png"
    },
    {
      "uri": "textures/Book_Paper_metallicRoughness.png"
    },
    {
      "uri": "textures/Book_Paper_normal.png"
    },
    {
      "uri": "textures/Book_Paper_baseColor.png"
    }
  ],
  "materials": [
    {
      "doubleSided": true,
      "emissiveFactor": [
        0,
        0,
        0
      ],
      "name": "Book_Paper",
      "normalTexture": {
        "index": 4,
        "scale": 0.2822027439,
        "texCoord": 0
      },
      "occlusionTexture": {
        "index": 3,
        "strength": 1,
        "texCoord": 0
      },
      "pbrMetallicRoughness": {
        "baseColorFactor": [
          1,
          1,
          1,
          1
        ],
        "baseColorTexture": {
          "index": 5,
          "texCoord": 0
        },
        "metallicFactor": 1,
        "metallicRoughnessTexture": {
          "index": 3,
          "texCoord": 0
        },
        "roughnessFactor": 1
      }
    },
    {
      "doubleSided": true,
      "name": "Book_Cover",
      "normalTexture": {
        "index": 1,
        "scale": 1,
        "texCoord": 0
      },
      "occlusionTexture": {
        "index": 2,
        "strength": 1,
        "texCoord": 0
      },
      "pbrMetallicRoughness": {
        "baseColorFactor": [
          1,
          1,
          1,
          1
        ],
        "baseColorTexture": {
          "index": 0,
          "texCoord": 0
        },
        "metallicFactor": 1,
        "metallicRoughnessTexture": {
          "index": 2,
          "texCoord": 0
        },
        "roughnessFactor": 0.59999999999999998
      }
    }
  ],
  "meshes": [
    {
      "name": "polySurface42_Book_Paper_0",
      "primitives": [
        {
          "attributes": {
            "NORMAL": 1,
            "POSITION": 0,
            "TANGENT": 2,
            "TEXCOORD_0": 3
          },
          "indices": 4,
          "material": 0,
          "mode": 4
        }
      ]
    },
    {
      "name": "polySurface42_Book_Cover_0",
      "primitives": [
        {
          "attributes": {
            "NORMAL": 6,
            "POSITION": 5,
            "TANGENT": 7,
            "TEXCOORD_0": 8
          },
          "indices": 9,
          "material": 1,
          "mode": 4
        }
      ]
    }
  ],
  "nodes": [
    {
      "children": [
        1
      ],
      "name": "RootNode (gltf orientation matrix)",
      "rotation": [
        -0.70710678118654746,
        -0,
        -0,
        0.70710678118654757
      ]
    },
    {
      "children": [
        2
      ],
      "matrix": [
        1,
        0,
        -7.5197196565568447e-05,
        0,
        0,
        1,
        0,
        0,
        7.5197196565568447e-05,
        0,
        1,
        0,
        -0.0005805825931020081,
        0,
        0.00089796597603708506,
        1
      ],
      "name": "RootNode (model correction matrix)"
    },
    {
      "children": [
        3
      ],
      "matrix": [
        1,
        0,
        0,
        0,
        0,
        0,
        1,
        0,
        0,
        -1,
        0,
        0,
        0,
        0,
        0,
        1
      ],
      "name": "7090573086fa4f9ca4ea69838d079610.fbx"
    },
    {
      "children": [
        4
      ],
      "name": "RootNode"
    },
    {
      "children": [
        5,
        6
      ],
      "name": "polySurface42"
    },
    {
      "mesh": 0,
      "name": "polySurface42_Book_Paper_0"
    },
    {
      "mesh": 1,
      "name": "polySurface42_Book_Cover_0"
    }
  ],
  "samplers": [
    {
      "magFilter": 9729,
      "minFilter": 9987,
      "wrapS": 10497,
      "wrapT": 10497
    }
  ],
  "scene": 0,
  "scenes": [
    {
      "name": "OSG_Scene",
      "nodes": [
        0
      ]
    }
  ],
  "textures": [
    {
      "sampler": 0,
      "source": 0
    },
    {
      "sampler": 0,
      "source": 1
    },
    {
      "sampler": 0,
      "source": 2
    },
    {
      "sampler": 0,
      "source": 3
    },
    {
      "sampler": 0,
      "source": 4
    },
    {
      "sampler": 0,
      "source": 5
    }
  ]
}

