{
  "accessors": [
    {
      "bufferView": 2,
      "componentType": 5126,
      "count": 562,
      "max": [
        0.20003679394721985,
        0.11419673264026642,
        0.2164110541343689
      ],
      "min": [
        -0.20522668957710266,
        -0.14836587011814117,
        0.001217718468979001
      ],
      "type": "VEC3"
    },
    {
      "bufferView": 2,
      "byteOffset": 6744,
      "componentType": 5126,
      "count": 562,
      "max": [
        0.99697607755661011,
        0.99955767393112183,
        0.99734538793563843
      ],
      "min": [
        -0.99620145559310913,
        -0.99779278039932251,
        -0.99979245662689209
      ],
      "type": "VEC3"
    },
    {
      "bufferView": 3,
      "componentType": 5126,
      "count": 562,
      "max": [
        0.686046302318573,
        0.99397498369216919,
        0.9972689151763916,
        1
      ],
      "min": [
        -0.99668926000595093,
        -0.99827533960342407,
        -0.9996914267539978,
        1
      ],
      "type": "VEC4"
    },
    {
      "bufferView": 1,
      "componentType": 5126,
      "count": 562,
      "max": [
        0.98308563232421875,
        0.97723555564880371
      ],
      "min": [
        0.019579622894525528,
        0.02452537976205349
      ],
      "type": "VEC2"
    },
    {
      "bufferView": 0,
      "componentType": 5125,
      "count": 2874,
      "max": [
        561
      ],
      "min": [
        0
      ],
      "type": "SCALAR"
    }
  ],
  "asset": {
    "extras": {
      "author": "Igrodev CG (https://sketchfab.com/Igrodev)",
      "license": "CC-BY-4.0 (http://creativecommons.org/licenses/by/4.0/)",
      "source": "https://sketchfab.com/3d-models/game-ready-free-bread-loaf-daf4801f72ae4f9eba9c338afbbb2926",
      "title": "(Game Ready Free) Bread Loaf / Буханка хлеба"
    },
    "generator": "Sketchfab-9.25.0",
    "version": "2.0"
  },
  "bufferViews": [
    {
      "buffer": 0,
      "byteLength": 11496,
      "byteOffset": 0,
      "name": "floatBufferViews",
      "target": 34963
    },
    {
      "buffer": 0,
      "byteLength": 4496,
      "byteOffset": 11496,
      "byteStride": 8,
      "name": "floatBufferViews",
      "target": 34962
    },
    {
      "buffer": 0,
      "byteLength": 13488,
      "byteOffset": 15992,
      "byteStride": 12,
      "name": "floatBufferViews",
      "target": 34962
    },
    {
      "buffer": 0,
      "byteLength": 8992,
      "byteOffset": 29480,
      "byteStride": 16,
      "name": "floatBufferViews",
      "target": 34962
    }
  ],
  "buffers": [
    {
      "byteLength": 38472,
      "uri": "scene.bin"
    }
  ],
  "images": [
    {
      "uri": "textures/baton1mat_baseColor.png"
    },
    {
      "uri": "textures/baton1mat_metallicRoughness.png"
    },
    {
      "uri": "textures/baton1mat_normal.png"
    }
  ],
  "materials": [
    {
      "doubleSided": true,
      "emissiveFactor": [
        0,
        0,
        0
      ],
      "name": "baton1mat",
      "normalTexture": {
        "index": 2,
        "scale": 1,
        "texCoord": 0
      },
      "occlusionTexture": {
        "index": 1,
        "strength": 1,
        "texCoord": 0
      },
      "pbrMetallicRoughness": {
        "baseColorFactor": [
          1,
          1,
          1,
          1
        ],
        "baseColorTexture": {
          "index": 0,
          "texCoord": 0
        },
        "metallicFactor": 0,
        "metallicRoughnessTexture": {
          "index": 1,
          "texCoord": 0
        },
        "roughnessFactor": 0.45000000000000001
      }
    }
  ],
  "meshes": [
    {
      "name": "Plane_baton)1)mat_0",
      "primitives": [
        {
          "attributes": {
            "NORMAL": 1,
            "POSITION": 0,
            "TANGENT": 2,
            "TEXCOORD_0": 3
          },
          "indices": 4,
          "material": 0,
          "mode": 4
        }
      ]
    }
  ],
  "nodes": [
    {
      "children": [
        1
      ],
      "name": "RootNode (gltf orientation matrix)",
      "rotation": [
        -0.70710678118654746,
        -0,
        -0,
        0.70710678118654757
      ]
    },
    {
      "children": [
        2
      ],
      "name": "RootNode (model correction matrix)"
    },
    {
      "children": [
        3
      ],
      "matrix": [
        1,
        0,
        0,
        0,
        0,
        0,
        1,
        0,
        0,
        -1,
        0,
        0,
        0,
        0,
        0,
        1
      ],
      "name": "f19d534e299a4345a660589ade40ee26.fbx"
    },
    {
      "children": [
        4
      ],
      "name": "RootNode"
    },
    {
      "children": [
        5
      ],
      "matrix": [
        100,
        0,
        0,
        0,
        0,
        -1.6292067939183141e-05,
        -99.999999999998678,
        0,
        0,
        99.999999999998678,
        -1.6292067939183141e-05,
        0,
        0,
        0,
        0,
        1
      ],
      "name": "Plane"
    },
    {
      "mesh": 0,
      "name": "Plane_baton)1)mat_0"
    }
  ],
  "samplers": [
    {
      "magFilter": 9729,
      "minFilter": 9987,
      "wrapS": 10497,
      "wrapT": 10497
    }
  ],
  "scene": 0,
  "scenes": [
    {
      "name": "OSG_Scene",
      "nodes": [
        0
      ]
    }
  ],
  "textures": [
    {
      "sampler": 0,
      "source": 0
    },
    {
      "sampler": 0,
      "source": 1
    },
    {
      "sampler": 0,
      "source": 2
    }
  ]
}

