{
  "accessors": [
    {
      "bufferView": 2,
      "componentType": 5126,
      "count": 1060,
      "max": [
        -768.21917724609375,
        338.74508666992188,
        2322.78076171875
      ],
      "min": [
        -2037.534423828125,
        137.339599609375,
        755.0399169921875
      ],
      "type": "VEC3"
    },
    {
      "bufferView": 2,
      "byteOffset": 12720,
      "componentType": 5126,
      "count": 1060,
      "max": [
        0.9999920129776001,
        1,
        0.99898695945739746
      ],
      "min": [
        -0.99997484683990479,
        -1,
        -0.99952763319015503
      ],
      "type": "VEC3"
    },
    {
      "bufferView": 1,
      "componentType": 5126,
      "count": 1060,
      "max": [
        1.0191999673843384,
        -0
      ],
      "min": [
        0.003599999938160181,
        -1
      ],
      "type": "VEC2"
    },
    {
      "bufferView": 0,
      "componentType": 5125,
      "count": 3000,
      "max": [
        1059
      ],
      "min": [
        0
      ],
      "type": "SCALAR"
    },
    {
      "bufferView": 2,
      "byteOffset": 25440,
      "componentType": 5126,
      "count": 1590,
      "max": [
        -731.40191650390625,
        342.4088134765625,
        2500.61767578125
      ],
      "min": [
        -1996.45751953125,
        137.339599609375,
        792.14068603515625
      ],
      "type": "VEC3"
    },
    {
      "bufferView": 2,
      "byteOffset": 44520,
      "componentType": 5126,
      "count": 1590,
      "max": [
        0.9999576210975647,
        1,
        0.99995386600494385
      ],
      "min": [
        -0.99867707490921021,
        -1,
        -0.99990826845169067
      ],
      "type": "VEC3"
    },
    {
      "bufferView": 1,
      "byteOffset": 8480,
      "componentType": 5126,
      "count": 1590,
      "max": [
        1.0191999673843384,
        -0
      ],
      "min": [
        0.003599999938160181,
        -1
      ],
      "type": "VEC2"
    },
    {
      "bufferView": 0,
      "byteOffset": 12000,
      "componentType": 5125,
      "count": 4500,
      "max": [
        1589
      ],
      "min": [
        0
      ],
      "type": "SCALAR"
    },
    {
      "bufferView": 2,
      "byteOffset": 63600,
      "componentType": 5126,
      "count": 86,
      "max": [
        -601.91058349609375,
        292.63018798828125,
        2638.638671875
      ],
      "min": [
        -2178.9765625,
        188.80329895019531,
        630.767822265625
      ],
      "type": "VEC3"
    },
    {
      "bufferView": 2,
      "byteOffset": 64632,
      "componentType": 5126,
      "count": 86,
      "max": [
        0.99895423650741577,
        0.99996745586395264,
        0.97930282354354858
      ],
      "min": [
        -0.99501442909240723,
        -0.99991989135742188,
        -0.99999916553497314
      ],
      "type": "VEC3"
    },
    {
      "bufferView": 1,
      "byteOffset": 21200,
      "componentType": 5126,
      "count": 86,
      "max": [
        1,
        -0
      ],
      "min": [
        0,
        -1
      ],
      "type": "VEC2"
    },
    {
      "bufferView": 0,
      "byteOffset": 30000,
      "componentType": 5125,
      "count": 216,
      "max": [
        85
      ],
      "min": [
        0
      ],
      "type": "SCALAR"
    },
    {
      "bufferView": 2,
      "byteOffset": 65664,
      "componentType": 5126,
      "count": 236,
      "max": [
        -774.16357421875,
        496.61819458007812,
        2593.500732421875
      ],
      "min": [
        -2096.89453125,
        -16.740699768066406,
        731.04571533203125
      ],
      "type": "VEC3"
    },
    {
      "bufferView": 2,
      "byteOffset": 68496,
      "componentType": 5126,
      "count": 236,
      "max": [
        0.99766302108764648,
        1,
        0.97930282354354858
      ],
      "min": [
        -0.92692476511001587,
        -1,
        -0.97930282354354858
      ],
      "type": "VEC3"
    },
    {
      "bufferView": 1,
      "byteOffset": 21888,
      "componentType": 5126,
      "count": 236,
      "max": [
        1.6669000387191772,
        0.66689997911453247
      ],
      "min": [
        -0.66689997911453247,
        -1.7569999694824219
      ],
      "type": "VEC2"
    },
    {
      "bufferView": 0,
      "byteOffset": 30864,
      "componentType": 5125,
      "count": 360,
      "max": [
        235
      ],
      "min": [
        0
      ],
      "type": "SCALAR"
    }
  ],
  "asset": {
    "extras": {
      "author": "IronEqual (https://sketchfab.com/ie-niels)",
      "license": "CC-BY-4.0 (http://creativecommons.org/licenses/by/4.0/)",
      "source": "https://sketchfab.com/3d-models/sandwich-from-poly-by-google-4fe6d72f20aa4c62bf5dc38f5a66f3a8",
      "title": "Sandwich from Poly by Google"
    },
    "generator": "Sketchfab-9.96.0",
    "version": "2.0"
  },
  "bufferViews": [
    {
      "buffer": 0,
      "byteLength": 32304,
      "byteOffset": 0,
      "name": "floatBufferViews",
      "target": 34963
    },
    {
      "buffer": 0,
      "byteLength": 23776,
      "byteOffset": 32304,
      "byteStride": 8,
      "name": "floatBufferViews",
      "target": 34962
    },
    {
      "buffer": 0,
      "byteLength": 71328,
      "byteOffset": 56080,
      "byteStride": 12,
      "name": "floatBufferViews",
      "target": 34962
    }
  ],
  "buffers": [
    {
      "byteLength": 127408,
      "uri": "scene.bin"
    }
  ],
  "materials": [
    {
      "doubleSided": true,
      "emissiveFactor": [
        0,
        0,
        0
      ],
      "name": "08___Default",
      "pbrMetallicRoughness": {
        "baseColorFactor": [
          0.99219999999999997,
          0.058799999999999998,
          0.058799999999999998,
          1
        ],
        "metallicFactor": 0,
        "roughnessFactor": 0.96994800000000003
      }
    },
    {
      "doubleSided": true,
      "emissiveFactor": [
        0,
        0,
        0
      ],
      "name": "02___Default",
      "pbrMetallicRoughness": {
        "baseColorFactor": [
          1,
          0.75690000000000002,
          0.0118,
          1
        ],
        "metallicFactor": 0,
        "roughnessFactor": 0.96994800000000003
      }
    },
    {
      "doubleSided": true,
      "emissiveFactor": [
        0,
        0,
        0
      ],
      "name": "07___Default",
      "pbrMetallicRoughness": {
        "baseColorFactor": [
          0.1176,
          1,
          0.1176,
          1
        ],
        "metallicFactor": 0,
        "roughnessFactor": 0.96994800000000003
      }
    },
    {
      "doubleSided": true,
      "emissiveFactor": [
        0,
        0,
        0
      ],
      "name": "crayfishdiffuse",
      "pbrMetallicRoughness": {
        "baseColorFactor": [
          0.95689999999999997,
          0.68630000000000002,
          0.40389999999999998,
          1
        ],
        "metallicFactor": 0,
        "roughnessFactor": 0.91243799999999997
      }
    }
  ],
  "meshes": [
    {
      "primitives": [
        {
          "attributes": {
            "NORMAL": 1,
            "POSITION": 0,
            "TEXCOORD_0": 2
          },
          "indices": 3,
          "material": 0,
          "mode": 4
        }
      ]
    },
    {
      "primitives": [
        {
          "attributes": {
            "NORMAL": 5,
            "POSITION": 4,
            "TEXCOORD_0": 6
          },
          "indices": 7,
          "material": 1,
          "mode": 4
        }
      ]
    },
    {
      "primitives": [
        {
          "attributes": {
            "NORMAL": 9,
            "POSITION": 8,
            "TEXCOORD_0": 10
          },
          "indices": 11,
          "material": 2,
          "mode": 4
        }
      ]
    },
    {
      "primitives": [
        {
          "attributes": {
            "NORMAL": 13,
            "POSITION": 12,
            "TEXCOORD_0": 14
          },
          "indices": 15,
          "material": 3,
          "mode": 4
        }
      ]
    }
  ],
  "nodes": [
    {
      "children": [
        1
      ],
      "name": "RootNode (gltf orientation matrix)",
      "rotation": [
        -0.70710678118654746,
        -0,
        -0,
        0.70710678118654757
      ]
    },
    {
      "children": [
        2
      ],
      "name": "RootNode (model correction matrix)"
    },
    {
      "children": [
        3
      ],
      "name": "root"
    },
    {
      "children": [
        4
      ],
      "matrix": [
        1,
        0,
        0,
        0,
        0,
        2.2204460492503131e-16,
        1,
        0,
        0,
        -1,
        2.2204460492503131e-16,
        0,
        0,
        0,
        0,
        1
      ],
      "name": "GLTF_SceneRootNode"
    },
    {
      "children": [
        5,
        6,
        7,
        8
      ],
      "name": "node-0_0"
    },
    {
      "mesh": 0,
      "name": ""
    },
    {
      "mesh": 1,
      "name": ""
    },
    {
      "mesh": 2,
      "name": ""
    },
    {
      "mesh": 3,
      "name": ""
    }
  ],
  "scene": 0,
  "scenes": [
    {
      "name": "OSG_Scene",
      "nodes": [
        0
      ]
    }
  ]
}

