{
  "accessors": [
    {
      "bufferView": 2,
      "componentType": 5126,
      "count": 65532,
      "max": [
        2.4097046852111816,
        1.3978383541107178,
        2.0046656131744385
      ],
      "min": [
        -2.5781269073486328,
        -2.1836202144622803,
        -0.059735558927059174
      ],
      "type": "VEC3"
    },
    {
      "bufferView": 2,
      "byteOffset": 786384,
      "componentType": 5126,
      "count": 65532,
      "max": [
        0.99993312358856201,
        0.99997788667678833,
        0.99999886751174927
      ],
      "min": [
        -0.99580347537994385,
        -0.99987375736236572,
        -1
      ],
      "type": "VEC3"
    },
    {
      "bufferView": 3,
      "componentType": 5126,
      "count": 65532,
      "max": [
        0.99999910593032837,
        0.99906659126281738,
        0.99994289875030518,
        1
      ],
      "min": [
        -0.99998378753662109,
        -0.99999779462814331,
        -0.99999743700027466,
        1
      ],
      "type": "VEC4"
    },
    {
      "bufferView": 1,
      "componentType": 5126,
      "count": 65532,
      "max": [
        0.98124891519546509,
        0.97874826192855835
      ],
      "min": [
        0.021323623135685921,
        0.0094797918573021889
      ],
      "type": "VEC2"
    },
    {
      "bufferView": 1,
      "byteOffset": 524256,
      "componentType": 5126,
      "count": 65532,
      "max": [
        0.98124891519546509,
        0.97874826192855835
      ],
      "min": [
        0.021323623135685921,
        0.0094797918573021889
      ],
      "type": "VEC2"
    },
    {
      "bufferView": 0,
      "componentType": 5125,
      "count": 208227,
      "max": [
        65531
      ],
      "min": [
        0
      ],
      "type": "SCALAR"
    },
    {
      "bufferView": 2,
      "byteOffset": 1572768,
      "componentType": 5126,
      "count": 23933,
      "max": [
        2.4108805656433105,
        1.3895478248596191,
        1.4328725337982178
      ],
      "min": [
        -2.6147336959838867,
        -2.1943323612213135,
        -0.062359042465686798
      ],
      "type": "VEC3"
    },
    {
      "bufferView": 2,
      "byteOffset": 1859964,
      "componentType": 5126,
      "count": 23933,
      "max": [
        0.99997979402542114,
        0.99959975481033325,
        0.99998718500137329
      ],
      "min": [
        -0.99998050928115845,
        -0.99283856153488159,
        -0.99995678663253784
      ],
      "type": "VEC3"
    },
    {
      "bufferView": 3,
      "byteOffset": 1048512,
      "componentType": 5126,
      "count": 23933,
      "max": [
        0.99999403953552246,
        0.99913793802261353,
        0.99956989288330078,
        1
      ],
      "min": [
        -0.99498188495635986,
        -0.99977117776870728,
        -0.99917590618133545,
        1
      ],
      "type": "VEC4"
    },
    {
      "bufferView": 1,
      "byteOffset": 1048512,
      "componentType": 5126,
      "count": 23933,
      "max": [
        0.88514083623886108,
        0.97328644990921021
      ],
      "min": [
        0.011746433563530445,
        0.010769597254693508
      ],
      "type": "VEC2"
    },
    {
      "bufferView": 1,
      "byteOffset": 1239976,
      "componentType": 5126,
      "count": 23933,
      "max": [
        0.88514083623886108,
        0.97328644990921021
      ],
      "min": [
        0.011746433563530445,
        0.010769597254693508
      ],
      "type": "VEC2"
    },
    {
      "bufferView": 0,
      "byteOffset": 832908,
      "componentType": 5125,
      "count": 76029,
      "max": [
        23932
      ],
      "min": [
        0
      ],
      "type": "SCALAR"
    }
  ],
  "asset": {
    "extras": {
      "author": "Jacques (https://sketchfab.com/DanTCM3)",
      "license": "CC-BY-4.0 (http://creativecommons.org/licenses/by/4.0/)",
      "source": "https://sketchfab.com/3d-models/croissant-ea9992f27d57427cb94944598bc83117",
      "title": "Croissant"
    },
    "generator": "Sketchfab-5.80.0",
    "version": "2.0"
  },
  "bufferViews": [
    {
      "buffer": 0,
      "byteLength": 1137024,
      "byteOffset": 0,
      "name": "floatBufferViews",
      "target": 34963
    },
    {
      "buffer": 0,
      "byteLength": 1431440,
      "byteOffset": 1137024,
      "byteStride": 8,
      "name": "floatBufferViews",
      "target": 34962
    },
    {
      "buffer": 0,
      "byteLength": 2147160,
      "byteOffset": 2568464,
      "byteStride": 12,
      "name": "floatBufferViews",
      "target": 34962
    },
    {
      "buffer": 0,
      "byteLength": 1431440,
      "byteOffset": 4715624,
      "byteStride": 16,
      "name": "floatBufferViews",
      "target": 34962
    }
  ],
  "buffers": [
    {
      "byteLength": 6147064,
      "uri": "scene.bin"
    }
  ],
  "images": [
    {
      "uri": "textures/Croissant_baseColor.png"
    },
    {
      "uri": "textures/Croissant_metallicRoughness.png"
    },
    {
      "uri": "textures/Croissant_normal.png"
    }
  ],
  "materials": [
    {
      "doubleSided": true,
      "emissiveFactor": [
        0,
        0,
        0
      ],
      "name": "Croissant",
      "normalTexture": {
        "index": 2,
        "scale": 0.30366880788743122,
        "texCoord": 1
      },
      "pbrMetallicRoughness": {
        "baseColorFactor": [
          1,
          1,
          1,
          1
        ],
        "baseColorTexture": {
          "index": 0,
          "texCoord": 0
        },
        "metallicFactor": 0,
        "metallicRoughnessTexture": {
          "index": 1,
          "texCoord": 1
        },
        "roughnessFactor": 0.64329144939686522
      }
    }
  ],
  "meshes": [
    {
      "name": "Croissant_Croissant_0",
      "primitives": [
        {
          "attributes": {
            "NORMAL": 1,
            "POSITION": 0,
            "TANGENT": 2,
            "TEXCOORD_0": 3,
            "TEXCOORD_1": 4
          },
          "indices": 5,
          "material": 0,
          "mode": 4
        }
      ]
    },
    {
      "name": "Croissant_Croissant_0",
      "primitives": [
        {
          "attributes": {
            "NORMAL": 7,
            "POSITION": 6,
            "TANGENT": 8,
            "TEXCOORD_0": 9,
            "TEXCOORD_1": 10
          },
          "indices": 11,
          "material": 0,
          "mode": 4
        }
      ]
    }
  ],
  "nodes": [
    {
      "children": [
        1
      ],
      "name": "RootNode (gltf orientation matrix)",
      "rotation": [
        -0.70710678118654746,
        -0,
        -0,
        0.70710678118654757
      ]
    },
    {
      "children": [
        2
      ],
      "name": "RootNode (model correction matrix)"
    },
    {
      "children": [
        3
      ],
      "matrix": [
        1,
        0,
        0,
        0,
        0,
        0,
        1,
        0,
        0,
        -1,
        0,
        0,
        0,
        0,
        0,
        1
      ],
      "name": "9ec2941e9ac44325985bcf9702e7d9c9.fbx"
    },
    {
      "children": [
        4
      ],
      "name": "RootNode"
    },
    {
      "children": [
        5,
        6
      ],
      "matrix": [
        100,
        0,
        0,
        0,
        0,
        -1.6292067939183141e-05,
        -99.999999999998678,
        0,
        0,
        99.999999999998678,
        -1.6292067939183141e-05,
        0,
        0,
        0,
        0,
        1
      ],
      "name": "Croissant"
    },
    {
      "mesh": 0,
      "name": "Croissant_Croissant_0"
    },
    {
      "mesh": 1,
      "name": "Croissant_Croissant_0"
    }
  ],
  "samplers": [
    {
      "magFilter": 9729,
      "minFilter": 9987,
      "wrapS": 10497,
      "wrapT": 10497
    }
  ],
  "scene": 0,
  "scenes": [
    {
      "name": "OSG_Scene",
      "nodes": [
        0
      ]
    }
  ],
  "textures": [
    {
      "sampler": 0,
      "source": 0
    },
    {
      "sampler": 0,
      "source": 1
    },
    {
      "sampler": 0,
      "source": 2
    }
  ]
}

